# xmcd CD database file
#
# Track frame offsets:
#	150
#	15635
#	34690
#	50626
#	67017
#	86452
#	106302
#	121247
#	139908
#	159766
#	176877
#	195376
#	212040
#
# Disc length: 3063 seconds
#
# Revision: 0
# Processed by: cddbd v1.5.2PL0 Copyright (c) Steve Scherf et al.
# Submitted via: CDex 1.51
#
DISCID=ae0bf50d
DTITLE=Chris Knight - Enough Rope
DYEAR=2006
DGENRE=Country
TTITLE0=Jack Blue
TTITLE1=Cry Lonely
TTITLE2=Saved By Love
TTITLE3=River Road
TTITLE4=Rural Route
TTITLE5=Dirt
TTITLE6=Up From The Hill
TTITLE7=Bridle On A Bull
TTITLE8=Old Man
TTITLE9=William's Son
TTITLE10=Too Close To Home
TTITLE11=To Get Back Home
TTITLE12=Enough Rope
EXTD=YEAR: 2006
EXTT0=
EXTT1=
EXTT2=
EXTT3=
EXTT4=
EXTT5=
EXTT6=
EXTT7=
EXTT8=
EXTT9=
EXTT10=
EXTT11=
EXTT12=
PLAYORDER=
